Coordinates
version=1
nRows=12
nColumns=24
inDegrees=yes

Units are S.I. units (second, meters, Newtons, ...)
Angles are in degrees.

endheader
time	pelvis_tilt	pelvis_list	pelvis_rotation	pelvis_tx	pelvis_ty	pelvis_tz	hip_flexion_r	hip_adduction_r	hip_rotation_r	knee_angle_r	ankle_angle_r	subtalar_angle_r	mtp_angle_r	hip_flexion_l	hip_adduction_l	hip_rotation_l	knee_angle_l	ankle_angle_l	subtalar_angle_l	mtp_angle_l	lumbar_extension	lumbar_bending	lumbar_rotation
      0.72900000	     -1.72048660	      3.69498777	     14.88066075	      0.07892296	      0.97668958	      0.27577593	     26.26362983	     -8.78871674	     -7.18656425	      1.93030673	      7.20483247	    -16.26990884	      5.20090329	    -22.67683381	      1.62769624	     13.34498661	     -2.66512536	      8.27635045	    -10.28266350	     12.50485201	     -1.00620824	     -5.09007229	     -5.13388551
      0.73316667	     -1.70246552	      3.62673505	     14.99068786	      0.08522224	      0.97611687	      0.27601076	     26.24788200	     -8.74500475	     -7.10661763	      1.52865196	      7.27276624	    -16.41466132	      5.19420971	    -22.84837188	      1.42737004	     13.33547618	     -3.00642118	      8.09060528	    -10.26222766	     12.51243919	     -0.96764774	     -4.99616959	     -5.15542035
      0.73733333	     -1.67031561	      3.54105522	     15.06650071	      0.09161222	      0.97557157	      0.27631552	     26.20535478	     -8.65598808	     -6.91609482	      1.12252919	      7.27727570	    -16.69061037	      5.17689586	    -23.02800286	      1.21475286	     13.25012467	     -3.35509996	      7.89068601	    -10.14897674	     12.56331484	     -0.92495533	     -4.85596963	     -5.23953302
      0.74150000	     -1.63574002	      3.44514372	     15.14956571	      0.09803713	      0.97507423	      0.27663676	     26.15841019	     -8.54994412	     -6.76833584	      0.68803906	      7.14853495	    -17.03194822	      5.15569278	    -23.17317887	      0.99067615	     13.12081693	     -3.77267566	      7.72354313	     -9.98808749	     12.69947188	     -0.87323678	     -4.72540160	     -5.29483847
      0.74566667	     -1.61103048	      3.33231791	     15.22919946	      0.10451809	      0.97460259	      0.27696073	     26.15370833	     -8.42640990	     -6.72812701	      0.15727463	      7.08579649	    -17.16450914	      5.15393133	    -23.31191290	      0.75630645	     13.07108950	     -4.17283972	      7.47990768	     -9.98616826	     12.72456237	     -0.81552000	     -4.58698152	     -5.30913443
      0.74983333	     -1.58169732	      3.18997923	     15.27478417	      0.11109732	      0.97414551	      0.27736077	     26.11778553	     -8.24282033	     -6.55060136	     -0.32123276	      6.83048644	    -17.55991844	      5.16662124	    -23.42518687	      0.49962552	     12.86350654	     -4.62309030	      7.25981342	     -9.76434369	     12.95835296	     -0.72341721	     -4.39184719	     -5.36630986
      0.75400000	     -1.55473646	      3.04136609	     15.32094800	      0.11772347	      0.97373002	      0.27774302	     26.12094170	     -8.05618612	     -6.52962547	     -0.90043355	      6.66252276	    -17.67792118	      5.17363014	    -23.54194086	      0.24287064	     12.74983107	     -5.05665348	      6.94320435	     -9.75710050	     13.02463661	     -0.61819828	     -4.19429535	     -5.38087885
      0.75816667	     -1.53677567	      2.86298171	     15.34794972	      0.12439626	      0.97332680	      0.27821777	     26.11373328	     -7.81713899	     -6.38664496	     -1.43107583	      6.28641509	    -18.08176370	      5.23939081	    -23.59511534	     -0.03803533	     12.49030348	     -5.58415352	      6.71185465	     -9.49185498	     13.40913397	     -0.51245487	     -3.98146430	     -5.39004392
      0.76233333	     -1.51247672	      2.67419969	     15.35970659	      0.13113944	      0.97297014	      0.27867504	     26.13545261	     -7.56541603	     -6.38754040	     -2.04739023	      6.00423898	    -18.14938329	      5.26187597	    -23.67987567	     -0.31896408	     12.32881188	     -6.05556283	      6.31585875	     -9.49567997	     13.52258285	     -0.39117223	     -3.74196668	     -5.40680308
      0.76650000	     -1.50679424	      2.46089138	     15.36526325	      0.13790760	      0.97261535	      0.27921729	     26.15987179	     -7.27450957	     -6.27576053	     -2.62113674	      5.53459863	    -18.56744257	      5.41376008	    -23.66492444	     -0.62172408	     11.98671787	     -6.67677000	      6.06935778	     -9.15834041	     14.14939090	     -0.25372079	     -3.50343529	     -5.38114324
      0.77066667	     -1.46936255	      2.25120309	     15.34478473	      0.14473875	      0.97235332	      0.27971535	     26.18553341	     -6.98111246	     -6.30883920	     -3.27709561	      5.16958268	    -18.56399849	      5.44941236	    -23.73508135	     -0.90864328	     11.78924648	     -7.19144400	      5.58819154	     -9.19673802	     14.28954629	     -0.12242988	     -3.22816931	     -5.40109006
      0.77483333	     -1.45488405	      2.02225965	     15.32537296	      0.15157723	      0.97208138	      0.28028550	     26.24188658	     -6.66660853	     -6.33478596	     -3.93679497	      4.72482298	    -18.69957832	      7.44043902	    -23.69165634	     -1.21835410	     11.38953936	     -7.86014344	      5.15503119	     -8.96539427	     21.35425333	      0.02393419	     -2.96655390	     -5.40115278
